<?xml version="1.0" standalone="no"?>
<!DOCTYPE svg PUBLIC "-//W3C//DTD SVG 1.1//EN" "http://www.w3.org/Graphics/SVG/1.1/DTD/svg11.dtd" >
<svg xmlns="http://www.w3.org/2000/svg" xmlns:xlink="http://www.w3.org/1999/xlink" version="1.1">
<metadata>
Created by FontForge 20170731 at Thu Apr  1 23:47:48 2021
 By Aleksey,,,
Open Source
</metadata>
<defs>
<font id="Ribes-Black" horiz-adv-x="344" >
  <font-face 
    font-family="Ribes Black"
    font-weight="900"
    font-stretch="normal"
    units-per-em="2048"
    panose-1="0 0 10 0 0 0 0 0 0 0"
    ascent="1638"
    descent="-410"
    x-height="993"
    cap-height="1446"
    bbox="-868 -479 1974 1927"
    underline-thickness="102"
    underline-position="-307"
    unicode-range="U+0020-2212"
  />
<missing-glyph horiz-adv-x="978" 
d="M803 1536v-1958h-621v1958h621zM651 1405h-321v-66h127v-71h-129v-66h323v66h-129v71h129v66zM522 1153h-194v-205h323v68h-129v137zM457 1085v-69h-66v69h66zM651 895h-323v-64h129v-73h-129v-64h194v137h129v64zM651 778h-63v-129h-260v-67h323v196zM651 539h-194v-109
h65v45h66v-92h-197v156h-63v-222h323v222zM651 201h-323v-221h323v221zM588 135v-90h-197v90h197zM651 -66h-323v-65h137l-137 -90v-66h323v66h-198l137 90h61v65z" />
    <glyph glyph-name=".notdef" horiz-adv-x="978" 
d="M803 1536v-1958h-621v1958h621zM651 1405h-321v-66h127v-71h-129v-66h323v66h-129v71h129v66zM522 1153h-194v-205h323v68h-129v137zM457 1085v-69h-66v69h66zM651 895h-323v-64h129v-73h-129v-64h194v137h129v64zM651 778h-63v-129h-260v-67h323v196zM651 539h-194v-109
h65v45h66v-92h-197v156h-63v-222h323v222zM651 201h-323v-221h323v221zM588 135v-90h-197v90h197zM651 -66h-323v-65h137l-137 -90v-66h323v66h-198l137 90h61v65z" />
    <glyph glyph-name=".null" horiz-adv-x="0" 
 />
    <glyph glyph-name="nonmarkingreturn" horiz-adv-x="682" 
 />
    <glyph glyph-name="space" unicode=" " horiz-adv-x="450" 
 />
    <glyph glyph-name="exclam" unicode="!" horiz-adv-x="368" 
d="M150 1446l14 -1086h57l15 1086h-86zM197 -4q-41 0 -70 29t-29 71q0 43 29 72t70 29t69.5 -29t28.5 -72t-28.5 -71.5t-69.5 -28.5z" />
    <glyph glyph-name="quotedbl" unicode="&#x22;" horiz-adv-x="393" 
d="M139 889h-49l-16 557h82zM303 889h-49l-16 557h81z" />
    <glyph glyph-name="numbersign" unicode="#" horiz-adv-x="1478" 
d="M1405 866l-305 -2l-180 -448l325 2l-33 -84l-325 -2l-133 -332h-82l133 332h-395l-136 -332h-81l137 332l-305 -2l32 84l305 2l187 448l-322 -2l33 84l324 2l145 355h78l-145 -355h393l141 355h78l-141 -355l305 2zM840 416l180 448h-393l-183 -448h396z" />
    <glyph glyph-name="dollar" unicode="$" horiz-adv-x="1306" 
d="M797 756q210 -18 315 -93.5t105 -195.5v-16q0 -187 -145 -324.5t-365 -146.5v-74h-78v76q-237 18 -392 178t-155 401h33q51 -124 188 -193t326 -77v405l-94 6q-191 14 -281 96.5t-90 205.5v16q0 182 130 303.5t331 142.5v70h77v-66q148 -1 266 -71.5t183.5 -194.5
t65.5 -278h-33q-43 102 -178.5 168.5t-300.5 68.5l2 -399zM295 963q0 -74 75.5 -124.5t204.5 -62.5l54 -4l-2 389q-147 -12 -239.5 -67t-92.5 -131zM707 291q167 6 268.5 62t101.5 139q0 80 -83.5 131t-237.5 63l-49 4v-399z" />
    <glyph glyph-name="percent" unicode="%" horiz-adv-x="1294" 
d="M348 938q-110 0 -184 75t-74 187t74 187t184 75t184 -75t74 -187t-74 -187t-184 -75zM1044 1446h103l-920 -1446h-104zM348 1018q74 0 123 52t49 130t-49.5 131t-122.5 53t-122.5 -53t-49.5 -131t49 -130t123 -52zM954 -12q-110 0 -184 75t-74 187t74 187t184 75t184 -75
t74 -187t-74 -187t-184 -75zM954 68q74 0 123 52t49 130t-49.5 131t-122.5 53t-122.5 -53t-49.5 -131t49 -130t123 -52z" />
    <glyph glyph-name="ampersand" unicode="&#x26;" horiz-adv-x="1181" 
d="M49 430q0 108 76.5 197t198.5 116v17q-104 25 -173 105.5t-69 178.5q0 184 132.5 303t338.5 119q184 0 304 -140t120 -355h-33q-37 86 -147.5 139t-251.5 53q-146 0 -239 -53t-93 -139q0 -76 90.5 -126t220.5 -50h617v-82h-242q80 -48 127 -123t47 -160
q0 -197 -144 -323.5t-368 -126.5t-368 126.5t-144 323.5zM188 504q0 -92 104 -150.5t269 -58.5t269 58.5t104 150.5t-105 150.5t-268 58.5q-165 0 -269 -58.5t-104 -150.5z" />
    <glyph glyph-name="quotesingle" unicode="'" horiz-adv-x="229" 
d="M139 889h-49l-16 557h82z" />
    <glyph glyph-name="parenleft" unicode="(" horiz-adv-x="753" 
d="M98 520q0 251 75 452.5t209 315t302 113.5v-86q-144 0 -258 -101.5t-178 -284.5t-64 -413q0 -226 65 -408t180 -284.5t259 -102.5v-90q-170 0 -305 115t-210 318t-75 456z" />
    <glyph glyph-name="parenright" unicode=")" horiz-adv-x="753" 
d="M655 520q0 -253 -75 -456t-210 -318t-304 -115v90q144 0 259 102.5t179.5 284t64.5 408.5q0 173 -37.5 321.5t-103 253.5t-158 164.5t-200.5 59.5v86q168 0 301.5 -113.5t208.5 -315t75 -452.5z" />
    <glyph glyph-name="asterisk" unicode="*" horiz-adv-x="1024" 
d="M74 805l377 201v12l-377 201l41 69l360 -225l10 6l-14 426h82l-14 -426l10 -6l360 225l41 -69l-377 -201v-12l377 -201l-41 -72l-362 225l-10 -4l16 -426h-82l16 426l-10 4l-362 -225z" />
    <glyph glyph-name="plus" unicode="+" horiz-adv-x="1146" 
d="M98 526l437 2l-3 -454h82l-2 454l437 -2v86l-437 -2l2 447h-82l3 -447l-437 2v-86z" />
    <glyph glyph-name="comma" unicode="," horiz-adv-x="307" 
d="M66 -373l81 557h86l-110 -557h-57z" />
    <glyph glyph-name="hyphen" unicode="-" horiz-adv-x="950" 
d="M131 614v-82h688v82h-688z" />
    <glyph glyph-name="period" unicode="." 
d="M172 -4q-41 0 -69.5 28.5t-28.5 71.5t28.5 72t69.5 29t69.5 -29t28.5 -72t-28.5 -71.5t-69.5 -28.5z" />
    <glyph glyph-name="slash" unicode="/" horiz-adv-x="696" 
d="M537 1536l-471 -1778h88l469 1778h-86z" />
    <glyph glyph-name="zero" unicode="0" horiz-adv-x="1294" 
d="M647 -20q-164 0 -295 96t-204.5 266.5t-73.5 382.5q0 210 73.5 379.5t204.5 265.5t295 96t295 -96t205 -265.5t74 -379.5q0 -212 -74 -382.5t-205 -266.5t-295 -96zM647 283q216 0 360 125t144 315t-144.5 317t-359.5 127t-359.5 -127t-144.5 -317t144 -315t360 -125z
" />
    <glyph glyph-name="one" unicode="1" horiz-adv-x="638" 
d="M426 1446h82v-1446h-82v922q-31 -79 -129.5 -128t-222.5 -49v336q154 0 253 102.5t99 262.5z" />
    <glyph glyph-name="two" unicode="2" horiz-adv-x="1093" 
d="M426 545q-89 -28 -153.5 -94.5t-79.5 -147.5h811v-303h-914v238q0 133 94 241.5t242 143.5q127 30 254 65q94 25 149.5 79t55.5 126q0 121 -97 195.5t-247 74.5q-158 0 -277 -67.5t-149 -169.5h-33q6 231 139.5 385.5t327.5 154.5q201 0 336 -140.5t135 -350.5
q0 -127 -85 -222.5t-222 -129.5q-210 -54 -287 -78z" />
    <glyph glyph-name="three" unicode="3" horiz-adv-x="1146" 
d="M786 713q143 -30 219 -119.5t76 -210.5q0 -175 -137.5 -289t-349.5 -114q-224 0 -372 159t-148 398h32q28 -72 98 -129.5t165.5 -89t199.5 -31.5q165 0 273 55t108 139q0 79 -98 133t-238 54h-114v82h114q140 0 232 56t92 144q0 91 -104.5 152t-268.5 61
q-134 0 -252.5 -62t-160.5 -159h-33q0 225 133 374.5t326 149.5q208 0 343.5 -124t135.5 -310q0 -114 -79 -204t-192 -115z" />
    <glyph glyph-name="four" unicode="4" horiz-adv-x="1048" 
d="M975 598v-303h-123v-295h-78v295h-708v188l700 963h86v-848h123zM246 598h528v487h-176z" />
    <glyph glyph-name="five" unicode="5" horiz-adv-x="1122" 
d="M551 885q216 0 361 -124.5t145 -314.5q0 -207 -143 -336.5t-361 -129.5q-147 0 -260.5 72.5t-174.5 199t-61 285.5h33q43 -111 167 -180.5t280 -69.5q169 0 281 74t112 184q0 111 -108.5 184.5t-278.5 73.5q-129 0 -262 -74q-26 -13 -74 -51l-68 29l43 739h826v-307h-775
l-20 -346l16 -9q136 101 322 101z" />
    <glyph glyph-name="six" unicode="6" horiz-adv-x="1163" 
d="M608 881q217 0 361.5 -120.5t144.5 -309.5q0 -208 -140.5 -339.5t-357.5 -131.5q-234 0 -388 194.5t-154 497.5q0 227 67.5 408.5t187 283.5t269.5 102q190 0 314 -146t124 -370h-32q-46 98 -156 159.5t-242 61.5q-202 0 -334.5 -137t-132.5 -346v-31q59 104 183.5 164
t285.5 60zM600 287q170 0 287 73.5t117 182.5q0 110 -116 183t-288 73q-174 0 -288.5 -72t-114.5 -184q0 -111 113.5 -183.5t289.5 -72.5z" />
    <glyph glyph-name="seven" unicode="7" horiz-adv-x="1001" 
d="M993 1446v-33l-635 -1413h-94l514 1139h-745v307h960z" />
    <glyph glyph-name="eight" unicode="8" horiz-adv-x="1122" 
d="M49 406q0 104 78 197t197 130q-101 29 -169.5 115t-68.5 184q0 186 135.5 310t339.5 124t339.5 -124t135.5 -310q0 -98 -68 -184t-169 -115q118 -37 196 -130t78 -197q0 -183 -146 -304.5t-366 -121.5t-366 121.5t-146 304.5zM201 967q0 -85 102.5 -141t257.5 -56t258 56
t103 141t-103 140.5t-258 55.5t-257.5 -55.5t-102.5 -140.5zM180 487q0 -86 109 -143t272 -57t272 57t109 143t-109 143.5t-272 57.5t-272 -57.5t-109 -143.5z" />
    <glyph glyph-name="nine" unicode="9" horiz-adv-x="1069" 
d="M545 1466q137 0 240 -92t156.5 -253.5t53.5 -370.5q0 -224 -57 -399t-163 -273t-243 -98q-211 0 -338.5 138t-127.5 361h32q44 -94 154.5 -153.5t255.5 -59.5q168 0 285 123t120 311v64q-53 -88 -148.5 -137t-219.5 -49q-206 0 -338.5 115t-132.5 296q0 209 132.5 343
t338.5 134zM537 659q152 0 248 72.5t96 183.5t-97 183.5t-247 72.5t-247 -72.5t-97 -183.5t96 -183.5t248 -72.5z" />
    <glyph glyph-name="colon" unicode=":" 
d="M172 743q-41 0 -69.5 29t-28.5 72t28.5 71.5t69.5 28.5t69.5 -28.5t28.5 -71.5t-28.5 -72t-69.5 -29zM172 -4q-41 0 -69.5 28.5t-28.5 71.5t28.5 72t69.5 29t69.5 -29t28.5 -72t-28.5 -71.5t-69.5 -28.5z" />
    <glyph glyph-name="semicolon" unicode=";" horiz-adv-x="356" 
d="M184 743q-41 0 -69.5 29t-28.5 72t28.5 71.5t69.5 28.5q42 0 70.5 -29t28.5 -71q0 -43 -29 -72t-70 -29zM66 -373l81 557h86l-110 -557h-57z" />
    <glyph glyph-name="less" unicode="&#x3c;" horiz-adv-x="966" 
d="M819 123v80l-655 350v16l655 344v78l-753 -354v-143z" />
    <glyph glyph-name="equal" unicode="=" horiz-adv-x="1212" 
d="M131 774v-84h950v84h-950zM131 424v-86h950v86h-950z" />
    <glyph glyph-name="greater" unicode="&#x3e;" horiz-adv-x="966" 
d="M147 123l754 371v143l-754 354v-78l656 -344v-16l-656 -350v-80z" />
    <glyph glyph-name="question" unicode="?" horiz-adv-x="1060" 
d="M516 344h-78v78q6 243 279 328q78 24 121 72.5t43 107.5q0 105 -96 169t-253 64q-158 0 -276.5 -69.5t-149.5 -175.5h-32q2 155 64.5 281t168.5 196.5t234 70.5q203 0 337 -130t134 -332q0 -111 -66 -197t-188 -119q-112 -30 -177 -101.5t-65 -168.5v-74zM483 -4
q-41 0 -69.5 28.5t-28.5 71.5t28.5 72t69.5 29t70 -29t29 -72q0 -42 -29 -71t-70 -29z" />
    <glyph glyph-name="at" unicode="@" horiz-adv-x="1669" 
d="M872 1389q154 0 289.5 -57.5t232.5 -157t153.5 -240t56.5 -299.5q0 -209 -56 -404h-90q66 198 66 387q0 145 -50 273t-136 219t-206 144t-255 53q-147 0 -280 -56.5t-228.5 -154.5t-152 -235t-56.5 -292q-1 -148 48.5 -277.5t135 -221t206 -144.5t257.5 -53
q154 0 263.5 90.5t119.5 226.5l10 162h-8q-46 -110 -138.5 -172.5t-215.5 -62.5q-182 0 -299 128.5t-117 327.5q0 191 114.5 314t292.5 123q124 0 219.5 -64t143.5 -174h8l-12 213h78v-795q0 -175 -135.5 -291t-339.5 -116q-202 0 -366.5 102t-257.5 283t-93 405
q0 172 62.5 324t169 259.5t254 170t312.5 62.5zM829 379q153 0 250 52t97 134q0 83 -96.5 135t-250.5 52q-152 0 -249 -52t-97 -135t97 -134.5t249 -51.5z" />
    <glyph glyph-name="A" unicode="A" horiz-adv-x="1347" 
d="M1036 0l-180 424h-606l-160 -424h-82l549 1446h143l639 -1446h-303zM281 504h540l-278 657h-13z" />
    <glyph glyph-name="B" unicode="B" horiz-adv-x="1273" 
d="M115 0v1446h635q184 0 305 -122.5t121 -307.5q0 -114 -67 -200.5t-179 -123.5v-8q119 -19 194.5 -107.5t75.5 -218.5q0 -157 -100.5 -257.5t-259.5 -100.5h-725zM193 719h606q111 0 184.5 60.5t73.5 152.5q0 95 -74.5 155t-191.5 60h-598v-428zM193 303h671
q91 0 146 48.5t55 123.5q0 73 -53.5 118.5t-139.5 45.5h-679v-336z" />
    <glyph glyph-name="C" unicode="C" horiz-adv-x="1449" 
d="M1298 831q-59 136 -221.5 228t-347.5 92q-123 0 -231.5 -33.5t-185 -91.5t-121 -137.5t-44.5 -169.5q0 -117 77.5 -213t215 -151.5t305.5 -55.5q197 0 371 90t236 221h32q-4 -178 -85 -322t-220 -226t-309 -82q-198 0 -357 95.5t-249 266.5t-90 385q0 212 83.5 381
t232.5 263.5t335 94.5q174 0 312.5 -81.5t216 -226.5t77.5 -327h-33z" />
    <glyph glyph-name="D" unicode="D" horiz-adv-x="1335" 
d="M672 1446q166 0 299 -92t207.5 -256.5t74.5 -370.5q0 -207 -71.5 -373t-201 -260t-292.5 -94h-573v1446h557zM721 311q202 0 331.5 116.5t129.5 295.5t-132 297.5t-337 118.5h-520v-828h528z" />
    <glyph glyph-name="E" unicode="E" horiz-adv-x="1167" 
d="M193 303h892v-303h-970v1446h954v-299h-876v-428h737v-80h-737v-336z" />
    <glyph glyph-name="F" unicode="F" horiz-adv-x="1101" 
d="M1069 1139h-876v-502h737v-80h-737v-557h-78v1446h954v-307z" />
    <glyph glyph-name="G" unicode="G" horiz-adv-x="1478" 
d="M752 692h637v-692h-74l16 369h-16q-56 -162 -212.5 -275.5t-332.5 -113.5q-196 0 -355 95.5t-250 266.5t-91 385q0 212 83 381t231.5 263.5t334.5 94.5q169 0 305.5 -82t212.5 -226t76 -322h-33q-56 135 -214.5 225t-342.5 90q-166 0 -298.5 -55.5t-207 -154.5
t-74.5 -222q0 -180 168.5 -300t421.5 -120q200 0 357 94t188 225h-530v74z" />
    <glyph glyph-name="H" unicode="H" horiz-adv-x="1382" 
d="M1190 1446h78v-1446h-78v526h-997v-526h-78v1446h78v-612h997v612z" />
    <glyph glyph-name="I" unicode="I" horiz-adv-x="307" 
d="M115 1446v-1446h78v1446h-78z" />
    <glyph glyph-name="J" unicode="J" horiz-adv-x="798" 
d="M623 1446h77v-1090q0 -257 -139.5 -421t-355.5 -164q-100 0 -180 14l4 334q100 -21 192 -21q175 0 288.5 75t113.5 192v1081z" />
    <glyph glyph-name="K" unicode="K" horiz-adv-x="1245" 
d="M115 0h78v475l163 172l480 -647h401l-664 868l549 578h-110l-819 -838v838h-78v-1446z" />
    <glyph glyph-name="L" unicode="L" horiz-adv-x="1110" 
d="M193 311h876v-311h-954v1446h78v-1135z" />
    <glyph glyph-name="M" unicode="M" horiz-adv-x="1597" 
d="M115 0h78v934l598 -934h36l578 930v-930h78v1446h-70l-600 -1020l-625 1020h-73v-1446z" />
    <glyph glyph-name="N" unicode="N" horiz-adv-x="1388" 
d="M115 0h78v1028l1011 -1028h70v1446h-78v-1036l-1008 1036h-73v-1446z" />
    <glyph glyph-name="O" unicode="O" horiz-adv-x="1490" 
d="M750 -20q-194 0 -348.5 95.5t-241 265.5t-86.5 382q0 159 50 297t138 236t213 154t270 56q194 0 347.5 -95.5t239 -265t85.5 -382.5q0 -159 -49.5 -297t-136.5 -236t-211.5 -154t-269.5 -56zM745 299q263 0 433 120.5t170 305.5t-170 305.5t-433 120.5t-432.5 -120.5
t-169.5 -305.5t169.5 -305.5t432.5 -120.5z" />
    <glyph glyph-name="P" unicode="P" horiz-adv-x="1232" 
d="M688 1446q221 0 362.5 -148t141.5 -378q0 -191 -130.5 -317t-332.5 -126h-536v-477h-78v1446h573zM745 557q141 0 232.5 82t91.5 205q0 126 -93.5 208.5t-238.5 82.5h-544v-578h552z" />
    <glyph glyph-name="Q" unicode="Q" horiz-adv-x="1499" 
d="M1425 723q0 -205 -79 -370.5t-222.5 -263t-326.5 -107.5v-170h-70l-2 168q-187 7 -336 104t-232 264.5t-83 374.5q0 212 86.5 382t241 265.5t348.5 95.5q145 0 271 -56t214.5 -154t139 -236t50.5 -297zM719 721h78v-420q246 11 401.5 129t155.5 295q0 185 -170.5 305.5
t-433.5 120.5q-174 0 -312 -55t-215.5 -152t-77.5 -219q0 -180 162 -299t416 -127z" />
    <glyph glyph-name="R" unicode="R" horiz-adv-x="1257" 
d="M1200 0h-328l-219 510h-460v-510h-78v1446h573q221 0 362.5 -144t141.5 -366q0 -131 -66.5 -232t-181.5 -151zM193 1135v-545h552q141 0 232.5 76.5t91.5 193.5q0 118 -94 196.5t-238 78.5h-544z" />
    <glyph glyph-name="S" unicode="S" horiz-adv-x="1306" 
d="M82 561h33q54 -131 204 -200.5t353 -69.5q182 0 293.5 56.5t111.5 144.5q0 80 -83.5 131t-237.5 63l-221 16q-191 14 -281 96.5t-90 205.5v16q0 199 154 324.5t382 125.5q149 0 267.5 -71t184 -195t65.5 -278h-33q-42 103 -181.5 170t-306.5 67q-172 0 -286.5 -57
t-114.5 -143q0 -74 75.5 -124.5t204.5 -62.5l222 -20q210 -18 315 -93.5t105 -195.5v-16q0 -94 -40.5 -180.5t-111 -150.5t-171 -102t-214.5 -38q-167 0 -303 72.5t-215.5 206t-79.5 302.5z" />
    <glyph glyph-name="T" unicode="T" horiz-adv-x="1294" 
d="M1262 1446v-307h-576v-1139h-78v1139h-575v307h1229z" />
    <glyph glyph-name="U" unicode="U" horiz-adv-x="1314" 
d="M1143 1444h78v-862q0 -264 -156.5 -433t-402.5 -169q-162 0 -291 78.5t-201 218t-72 313.5v854h78v-813q0 -135 139 -233.5t344 -98.5q206 0 345 95t139 229v821z" />
    <glyph glyph-name="V" unicode="V" horiz-adv-x="1343" 
d="M1339 1446l-553 -1446h-176l-602 1446h316l471 -1167h16l442 1167h86z" />
    <glyph glyph-name="W" unicode="W" horiz-adv-x="1921" 
d="M8 1446h303l371 -1079h16l318 1079h57l391 -1075h17l350 1075h86l-471 -1446h-131l-352 932h-17l-276 -932h-146z" />
    <glyph glyph-name="X" unicode="X" horiz-adv-x="1445" 
d="M12 1446l576 -782l-535 -664h119l469 582l424 -582h373l-604 799l489 647h-115l-428 -565l-399 565h-369z" />
    <glyph glyph-name="Y" unicode="Y" horiz-adv-x="1196" 
d="M4 1446l606 -1040v-406h78v406l508 1044h-86l-365 -733h-16l-405 729h-320z" />
    <glyph glyph-name="Z" unicode="Z" horiz-adv-x="1308" 
d="M254 311h973v-311h-1129v303l969 823v17h-944v303h1096v-295l-965 -823v-17z" />
    <glyph glyph-name="bracketleft" unicode="[" horiz-adv-x="589" 
d="M213 -283h336v-86h-418v1770h410v-82h-328v-1602z" />
    <glyph glyph-name="backslash" unicode="\" horiz-adv-x="696" 
d="M160 1536h-86l469 -1778h88z" />
    <glyph glyph-name="bracketright" unicode="]" horiz-adv-x="589" 
d="M459 1401v-1770h-418v86h336v1602h-328v82h410z" />
    <glyph glyph-name="asciicircum" unicode="^" horiz-adv-x="1099" 
d="M973 692l-369 754h-135l-365 -754h66l356 656h17l360 -656h70z" />
    <glyph glyph-name="underscore" unicode="_" horiz-adv-x="1564" 
d="M0 -254v-82h1565v82h-1565z" />
    <glyph glyph-name="grave" unicode="`" horiz-adv-x="1228" 
d="M895 1167l-561 99v86l561 -131v-54z" />
    <glyph glyph-name="a" unicode="a" horiz-adv-x="985" 
d="M502 1010q166 0 272.5 -117t106.5 -301v-592h-82l16 221h-16q-37 -99 -144 -168t-229 -69q-161 0 -265 89.5t-104 229.5q0 109 96.5 177.5t239.5 68.5h406v29q-6 80 -91.5 133t-213.5 53q-110 0 -199.5 -44t-120.5 -112h-37q0 174 102 288t263 114zM799 426v49h-414
q-92 0 -148.5 -30.5t-56.5 -79.5q0 -53 69.5 -86t160.5 -33q102 0 185 19t139.5 60.5t64.5 100.5z" />
    <glyph glyph-name="b" unicode="b" horiz-adv-x="1101" 
d="M582 1010q191 0 316.5 -145.5t125.5 -366.5q0 -222 -122 -368t-312 -146q-123 0 -229.5 75t-143.5 189h-12l8 -248h-82v1536h82l-16 -772h16q43 106 146.5 176t222.5 70zM590 270q159 0 263.5 65t104.5 163t-108 163.5t-268 65.5q-159 0 -266 -67t-107 -166
q0 -98 107.5 -161t273.5 -63z" />
    <glyph glyph-name="c" unicode="c" horiz-adv-x="1036" 
d="M909 567q-37 74 -140.5 119t-238.5 45q-167 0 -277 -66t-110 -169q0 -98 113 -162t283 -64q140 0 253 44t150 112h37q-6 -191 -126.5 -316.5t-301.5 -125.5q-206 0 -339.5 145t-133.5 369t126 368t322 144q184 0 302 -126t118 -317h-37z" />
    <glyph glyph-name="d" unicode="d" horiz-adv-x="1101" 
d="M889 1536h82v-1536h-82l8 207h-16q-43 -100 -137 -161.5t-209 -61.5q-200 0 -328.5 144t-128.5 368q0 225 123.5 369.5t316.5 144.5q128 0 231.5 -72t139.5 -190h16zM518 270q161 0 268 64.5t107 161.5q0 100 -107 165.5t-268 65.5t-268 -67t-107 -168q0 -95 107 -158.5
t268 -63.5z" />
    <glyph glyph-name="e" unicode="e" horiz-adv-x="1048" 
d="M930 418h37q-6 -190 -125 -312t-295 -122q-205 0 -337 146t-132 368q0 223 124.5 367.5t319.5 144.5q184 0 300 -132.5t116 -342.5q0 -56 -2 -66l-789 -12q21 -95 125 -155t258 -60q136 0 249.5 50.5t150.5 125.5zM522 756q-156 0 -260.5 -65.5t-116.5 -168.5l727 13
q-19 98 -117 159.5t-233 61.5z" />
    <glyph glyph-name="f" unicode="f" horiz-adv-x="688" 
d="M479 1266q-99 0 -164 -51t-65 -130v-149h393v-299h-393v-637h-82v637h-135v299h135v215q0 172 93.5 286.5t234.5 114.5q57 0 108 -18.5t76 -46.5l-4 -270q-28 22 -83 35.5t-114 13.5z" />
    <glyph glyph-name="g" unicode="g" horiz-adv-x="1101" 
d="M889 993h82v-925q0 -222 -114 -364t-292 -142q-189 0 -305.5 118t-116.5 304h33q37 -79 138.5 -128t226.5 -49q148 0 246.5 88.5t105.5 229.5l4 82h-16q-43 -100 -137 -161.5t-209 -61.5q-200 0 -328.5 144t-128.5 368q0 225 123.5 369.5t316.5 144.5q128 0 231.5 -72
t139.5 -190h16zM518 254q162 0 268.5 69t106.5 173q0 101 -106 166t-269 65q-164 0 -269.5 -65.5t-105.5 -169.5t106 -171t269 -67z" />
    <glyph glyph-name="h" unicode="h" horiz-adv-x="1077" 
d="M592 1010q166 0 276.5 -146t110.5 -366v-498h-82v481q0 100 -96.5 167t-241.5 67q-142 0 -241 -65t-105 -161v-489h-82v1536h82l-16 -786h16q37 112 145 186t234 74z" />
    <glyph glyph-name="i" unicode="i" horiz-adv-x="327" 
d="M164 1262q-41 0 -69.5 28.5t-28.5 71.5t28.5 71.5t69.5 28.5t69.5 -28.5t28.5 -71.5t-28.5 -71.5t-69.5 -28.5zM123 993v-993h82v993h-82z" />
    <glyph glyph-name="j" unicode="j" horiz-adv-x="380" 
d="M217 1262q-41 0 -69.5 28.5t-28.5 71.5t28.5 71.5t69.5 28.5t69.5 -28.5t28.5 -71.5t-28.5 -71.5t-69.5 -28.5zM-57 -438l4 286q98 0 163.5 48t65.5 120v977h82v-1009q0 -181 -90 -301.5t-225 -120.5z" />
    <glyph glyph-name="k" unicode="k" horiz-adv-x="995" 
d="M991 -2h-377l-303 438l-98 -86v-350h-82v1536h82v-1067l614 524h127l-413 -358z" />
    <glyph glyph-name="l" unicode="l" 
d="M131 1536v-1536h82v1536h-82z" />
    <glyph glyph-name="m" unicode="m" horiz-adv-x="1597" 
d="M1165 1010q148 0 241 -140t93 -364v-506h-78v498q0 101 -74 159t-198 58q-122 0 -202.5 -54t-86.5 -155v-506h-78v506q0 96 -79 152.5t-205 56.5q-127 0 -207 -52.5t-86 -148.5v-514h-82v993h82l-17 -243h17q37 117 124.5 188.5t192.5 71.5q106 0 187 -74t120 -203h17
q31 119 122.5 198t196.5 79z" />
    <glyph glyph-name="n" unicode="n" horiz-adv-x="1071" 
d="M971 498l2 -498h-82l-2 481q0 100 -95 167t-239 67q-142 0 -243 -65.5t-107 -160.5v-489h-82v993h82l-17 -245h17q36 120 141 191t234 71q166 0 278.5 -146.5t112.5 -365.5z" />
    <glyph glyph-name="o" unicode="o" horiz-adv-x="1126" 
d="M565 -16q-211 0 -349 143t-138 369t137.5 370t347.5 144q211 0 348.5 -144t137.5 -370t-136.5 -369t-347.5 -143zM563 270q183 0 301.5 63t118.5 163q0 103 -118.5 167t-301.5 64t-301.5 -64t-118.5 -167q0 -100 118.5 -163t301.5 -63z" />
    <glyph glyph-name="p" unicode="p" horiz-adv-x="1101" 
d="M582 1010q191 0 316.5 -145.5t125.5 -366.5q0 -222 -122 -368t-312 -146q-123 0 -229.5 75t-143.5 189h-12l8 -670h-82v1415h82l-16 -229h16q43 106 146.5 176t222.5 70zM590 270q159 0 263.5 65t104.5 163t-108 163.5t-268 65.5q-159 0 -266 -67t-107 -166
q0 -98 107.5 -161t273.5 -63z" />
    <glyph glyph-name="q" unicode="q" horiz-adv-x="1101" 
d="M889 993h82v-1415h-82l8 629h-16q-43 -100 -137 -161.5t-209 -61.5q-200 0 -328.5 144t-128.5 368q0 225 123.5 369.5t316.5 144.5q128 0 233.5 -72t141.5 -190h12zM518 270q161 0 268 64.5t107 161.5q0 100 -107 165.5t-268 65.5t-268 -67t-107 -168q0 -95 107 -158.5
t268 -63.5z" />
    <glyph glyph-name="r" unicode="r" horiz-adv-x="768" 
d="M518 1010q68 0 130 -28t87 -71l-4 -295q-33 33 -100 57.5t-137 24.5q-117 0 -200 -65.5t-89 -163.5v-469h-82v993h82l-17 -245h17q24 115 114 188.5t199 73.5z" />
    <glyph glyph-name="s" unicode="s" horiz-adv-x="940" 
d="M74 401h37q26 -70 129 -119t237 -49t208.5 31.5t74.5 87.5q0 83 -211 109l-156 16q-121 12 -189.5 69t-68.5 142v17q0 130 106.5 217.5t270.5 87.5t257 -103t93 -274h-37q-31 62 -111.5 96.5t-201.5 34.5q-123 0 -194.5 -34.5t-71.5 -82.5q0 -84 188 -108l176 -19
q124 -12 194 -68t70 -145v-12q0 -135 -108.5 -223t-276.5 -88q-177 0 -296 121.5t-119 295.5z" />
    <glyph glyph-name="t" unicode="t" horiz-adv-x="692" 
d="M471 238q111 0 156 20l-4 -250q-50 -24 -160 -24q-123 0 -205 100.5t-82 251.5v354h-110v303h110v369h82v-369h360v-303h-360v-330q0 -52 61 -87t152 -35z" />
    <glyph glyph-name="u" unicode="u" horiz-adv-x="1054" 
d="M850 993h82v-993h-82l16 246h-16q-31 -117 -125 -189.5t-217 -72.5q-176 0 -292 141.5t-116 361.5l-2 506h82l2 -497q0 -97 95.5 -161.5t238.5 -64.5q137 0 234 60t100 149v514z" />
    <glyph glyph-name="v" unicode="v" horiz-adv-x="995" 
d="M8 993l443 -993h131l405 993h-90l-291 -706h-16l-303 706h-279z" />
    <glyph glyph-name="w" unicode="w" horiz-adv-x="1490" 
d="M16 993l369 -993h139l205 631h16l246 -631h131l353 997h-91l-245 -712h-17l-254 708h-98l-229 -706h-17l-245 706h-263z" />
    <glyph glyph-name="x" unicode="x" horiz-adv-x="1060" 
d="M4 993h315l263 -354l282 354h115l-344 -424l430 -569h-320l-278 377l-303 -377h-119l369 451z" />
    <glyph glyph-name="y" unicode="y" horiz-adv-x="901" 
d="M4 993l418 -977h16l-164 -438h86l537 1415h-86l-250 -680h-16l-275 680h-266z" />
    <glyph glyph-name="z" unicode="z" horiz-adv-x="966" 
d="M246 266h647v-266h-807v250l643 469h-627v274h783v-262z" />
    <glyph glyph-name="braceleft" unicode="{" horiz-adv-x="630" 
d="M66 461v102h8q69 0 114 95.5t45 248.5q0 218 87 356t225 138h41v-82h-33q-110 0 -180 -114t-70 -290q0 -142 -40 -249t-107 -144v-16q69 -33 107 -145t38 -269q0 -160 75 -267.5t185 -107.5h29v-86h-45q-139 0 -227.5 133.5t-88.5 344.5q0 159 -41.5 255.5t-113.5 96.5
h-8z" />
    <glyph glyph-name="bar" unicode="|" 
d="M131 1446v-1778h82v1778h-82z" />
    <glyph glyph-name="braceright" unicode="}" horiz-adv-x="630" 
d="M565 461h-8q-73 0 -114.5 -96.5t-41.5 -255.5q0 -212 -88.5 -345t-226.5 -133h-45v86h29q110 0 185 107.5t75 267.5q0 157 38 269t107 145v16q-67 37 -107 144t-40 249q0 176 -70 290t-180 114h-33v82h41q138 0 224.5 -138t86.5 -356q0 -152 45 -248t115 -96h8v-102z" />
    <glyph glyph-name="exclamdown" unicode="&#xa1;" horiz-adv-x="368" 
d="M172 926q41 0 69.5 -29t28.5 -72t-28.5 -71.5t-69.5 -28.5t-69.5 28.5t-28.5 71.5t28.5 72t69.5 29zM125 -422h86l-14 983h-58z" />
    <glyph glyph-name="cent" unicode="&#xa2;" horiz-adv-x="999" 
d="M889 516h37q-5 -181 -119 -299.5t-285 -118.5q-30 0 -84 8l-63 -282h-86l73 301q-129 50 -206.5 173.5t-77.5 285.5q0 212 118 347.5t304 135.5q50 0 86 -8l76 338h83l-88 -361q109 -46 173.5 -150t64.5 -237h-37q-26 55 -95.5 94.5t-162.5 53.5l-100 -428h12
q131 0 237 42t140 105zM424 375l100 426q-6 2 -20 2q-158 0 -261.5 -62t-103.5 -159q0 -77 79.5 -133t205.5 -74z" />
    <glyph glyph-name="sterling" unicode="&#xa3;" horiz-adv-x="991" 
d="M348 311h610v-311h-868v311h176v260h-168v78h168v94h-172v78h172v191q0 201 101.5 329.5t263.5 128.5q81 0 152 -26t98 -68l-4 -291q-33 33 -106 53.5t-157 20.5q-119 0 -192.5 -60t-73.5 -153v-125h459v-78h-459v-94h463v-78h-463v-260z" />
    <glyph glyph-name="copyright" unicode="&#xa9;" horiz-adv-x="1654" 
d="M827 -217q-160 0 -300 61t-239.5 167.5t-156.5 256t-57 320.5t57 320t156.5 254.5t239.5 166t300 60.5q214 0 386.5 -103t270 -286.5t97.5 -411.5t-97.5 -412.5t-270 -288.5t-386.5 -104zM827 -127q142 0 266.5 54t212.5 148.5t138.5 226.5t50.5 284q0 204 -86 369
t-239 258.5t-343 93.5t-342.5 -93.5t-238.5 -258.5t-86 -369q0 -202 86 -365.5t238.5 -255.5t342.5 -92zM1188 649q-34 69 -130.5 111.5t-223.5 42.5q-158 0 -261.5 -62t-103.5 -159q0 -92 106.5 -152.5t266.5 -60.5q131 0 237 42t140 105h36q-5 -181 -118.5 -299.5
t-284.5 -118.5q-194 0 -319 137t-125 349q0 213 117.5 348t303.5 135q173 0 284.5 -118.5t111.5 -299.5h-37z" />
    <glyph glyph-name="guillemotleft" unicode="&#xab;" horiz-adv-x="827" 
d="M418 250l-336 242v90l336 233v-90l-262 -182v-17l262 -186v-90zM729 250l-336 242v90l336 233v-90l-262 -182v-17l262 -186v-90z" />
    <glyph glyph-name="degree" unicode="&#xb0;" horiz-adv-x="679" 
d="M340 881q-110 0 -184 75t-74 187t74 187t184 75t184 -75t74 -187t-74 -187t-184 -75zM340 961q74 0 123 52t49 130t-49.5 131t-122.5 53t-122.5 -53t-49.5 -131t49 -130t123 -52z" />
    <glyph glyph-name="acute" unicode="&#xb4;" horiz-adv-x="1228" 
d="M336 1167v54l557 135v-90z" />
    <glyph glyph-name="periodcentered" unicode="&#xb7;" 
d="M172 424q-41 0 -69.5 28.5t-28.5 71.5t28.5 72t69.5 29t69.5 -29t28.5 -72t-28.5 -71.5t-69.5 -28.5z" />
    <glyph glyph-name="cedilla" unicode="&#xb8;" horiz-adv-x="1228" 
d="M516 0h66l-58 -139q48 20 94 20q97 0 155 -42.5t58 -110.5q0 -74 -61.5 -122t-159.5 -48q-49 0 -96 13t-72 32v69q31 -22 76 -35.5t88 -13.5q74 0 119 27.5t45 73.5t-42.5 73t-113.5 27q-86 0 -135 -49l-41 16z" />
    <glyph glyph-name="guillemotright" unicode="&#xbb;" horiz-adv-x="827" 
d="M98 250v90l262 186v17l-262 182v90l336 -233v-90zM410 250v90l262 186v17l-262 182v90l335 -233v-90z" />
    <glyph glyph-name="questiondown" unicode="&#xbf;" horiz-adv-x="1060" 
d="M578 926q41 0 69.5 -29t28.5 -72t-28.5 -71.5t-69.5 -28.5q-42 0 -70.5 28.5t-28.5 71.5t29 72t70 29zM545 578h78v-13q-6 -255 -254 -332q-78 -24 -121 -75t-43 -111q0 -104 94.5 -163.5t253.5 -59.5q157 0 276 70t150 176h33q-3 -237 -130.5 -393t-320.5 -156
q-136 0 -246 52.5t-175.5 153t-65.5 232.5q0 114 67 211t187 129q108 29 162.5 99t54.5 171v9z" />
    <glyph glyph-name="Agrave" unicode="&#xc0;" horiz-adv-x="1388" 
d="M829 1606v-54l-561 99v86zM1036 0l-180 424h-606l-160 -424h-82l549 1446h143l639 -1446h-303zM281 504h540l-278 657h-13z" />
    <glyph glyph-name="Aacute" unicode="&#xc1;" horiz-adv-x="1388" 
d="M975 1741v-90l-557 -99v54zM1036 0l-180 424h-606l-160 -424h-82l549 1446h143l639 -1446h-303zM281 504h540l-278 657h-13z" />
    <glyph glyph-name="Acircumflex" unicode="&#xc2;" horiz-adv-x="1388" 
d="M625 1778l-179 -246h-57l180 303h131l172 -303h-57l-174 246h-16zM1036 0l-180 424h-606l-160 -424h-82l549 1446h143l639 -1446h-303zM281 504h540l-278 657h-13z" />
    <glyph glyph-name="Atilde" unicode="&#xc3;" horiz-adv-x="1388" 
d="M430 1651q-23 0 -36 -13t-13 -28h-25q0 96 42.5 146t113.5 50q49 0 111.5 -24.5t118.5 -49t89 -24.5q23 0 36.5 13t13.5 28h24q0 -96 -42 -146.5t-113 -50.5q-49 0 -111.5 25t-119 49.5t-89.5 24.5zM1036 0l-180 424h-606l-160 -424h-82l549 1446h143l639 -1446h-303z
M281 504h540l-278 657h-13z" />
    <glyph glyph-name="Adieresis" unicode="&#xc4;" horiz-adv-x="1347" 
d="M475 1571q-41 0 -69.5 28.5t-28.5 71.5t28.5 72t69.5 29t69.5 -29t28.5 -72t-28.5 -71.5t-69.5 -28.5zM786 1571q-41 0 -69.5 28.5t-28.5 71.5t28.5 72t69.5 29t70 -29t29 -72t-28.5 -71.5t-70.5 -28.5zM1036 0l-180 424h-606l-160 -424h-82l549 1446h143l639 -1446h-303
zM281 504h540l-278 657h-13z" />
    <glyph glyph-name="Aring" unicode="&#xc5;" horiz-adv-x="1388" 
d="M623 1524q-72 0 -120 49t-48 123t48 123t120 49t120 -49t48 -123t-48 -123t-120 -49zM623 1823q-49 0 -82 -36.5t-33 -90.5q0 -53 33 -88t82 -35t81.5 35t32.5 88q0 54 -32.5 90.5t-81.5 36.5zM1036 0l-180 424h-606l-160 -424h-82l549 1446h143l639 -1446h-303zM281 504
h540l-278 657h-13z" />
    <glyph glyph-name="AE" unicode="&#xc6;" horiz-adv-x="1626" 
d="M799 303h745v-303h-823v606h-549v-606h-74v815q0 277 128.5 454t330.5 177h971v-299h-729v-459h590v-80h-590v-305zM172 688h549v459h-172q-163 0 -270 -89t-107 -227v-143z" />
    <glyph glyph-name="Ccedilla" unicode="&#xc7;" horiz-adv-x="1449" 
d="M770 -20q-42 0 -65 2l-50 -121q48 20 95 20q97 0 155 -42.5t58 -110.5q0 -74 -62 -122t-160 -48q-49 0 -96 13t-72 32v69q31 -22 76 -35.5t88 -13.5q74 0 119 27.5t45 73.5t-42.5 73t-113.5 27q-86 0 -135 -49l-41 16l74 199q-254 45 -411.5 247t-157.5 490
q0 212 83.5 381t232.5 263.5t335 94.5q174 0 312.5 -81.5t216 -226.5t77.5 -327h-33q-59 136 -221.5 228t-347.5 92q-123 0 -231.5 -33.5t-185 -91.5t-121 -137.5t-44.5 -169.5q0 -117 77.5 -213t215 -151.5t305.5 -55.5q197 0 371 90t236 221h32q-4 -178 -85 -322
t-220 -226t-309 -82z" />
    <glyph glyph-name="Egrave" unicode="&#xc8;" horiz-adv-x="1187" 
d="M846 1606v-54l-561 99v86zM193 303h892v-303h-970v1446h954v-299h-876v-428h737v-80h-737v-336z" />
    <glyph glyph-name="Eacute" unicode="&#xc9;" horiz-adv-x="1187" 
d="M901 1741v-90l-557 -99v54zM193 303h892v-303h-970v1446h954v-299h-876v-428h737v-80h-737v-336z" />
    <glyph glyph-name="Ecircumflex" unicode="&#xca;" horiz-adv-x="1187" 
d="M592 1778l-178 -246h-58l181 303h131l172 -303h-58l-174 246h-16zM193 303h892v-303h-970v1446h954v-299h-876v-428h737v-80h-737v-336z" />
    <glyph glyph-name="Edieresis" unicode="&#xcb;" horiz-adv-x="1167" 
d="M442 1571q-41 0 -69.5 28.5t-28.5 71.5t28.5 72t69.5 29t70 -29t29 -72t-28.5 -71.5t-70.5 -28.5zM754 1571q-42 0 -70.5 28.5t-28.5 71.5t29 72t70 29t69.5 -29t28.5 -72t-28.5 -71.5t-69.5 -28.5zM193 303h892v-303h-970v1446h954v-299h-876v-428h737v-80h-737v-336z
" />
    <glyph glyph-name="Igrave" unicode="&#xcc;" horiz-adv-x="307" 
d="M184 1497h-53l-119 430h78zM115 1446v-1446h78v1446h-78z" />
    <glyph glyph-name="Iacute" unicode="&#xcd;" horiz-adv-x="307" 
d="M119 1497l86 430h86l-119 -430h-53zM115 1446v-1446h78v1446h-78z" />
    <glyph glyph-name="Icircumflex" unicode="&#xce;" horiz-adv-x="307" 
d="M346 1532l-127 303h-127l-131 -303h57l127 246h17l127 -246h57zM115 1446v-1446h78v1446h-78z" />
    <glyph glyph-name="Idieresis" unicode="&#xcf;" horiz-adv-x="307" 
d="M256 1772q42 0 70 -29t28 -72t-27.5 -70.5t-68.5 -27.5q-31 0 -57 18.5t-35 48.5h-16q-9 -30 -36.5 -49.5t-58.5 -19.5q-41 0 -69.5 28.5t-28.5 71.5t28 72t70 29q33 0 58 -20t34 -52h17q9 32 34 52t58 20zM115 0v1446h78v-1446h-78z" />
    <glyph glyph-name="Ntilde" unicode="&#xd1;" horiz-adv-x="1429" 
d="M438 1610q0 96 42.5 146t113.5 50q49 0 111.5 -24.5t118.5 -49t89 -24.5q23 0 36.5 13t13.5 28h24q0 -96 -42.5 -146.5t-113.5 -50.5q-49 0 -111.5 25t-118.5 49.5t-89 24.5q-23 0 -36 -13t-13 -28h-25zM115 0h78v1028l1011 -1028h70v1446h-78v-1036l-1008 1036h-73
v-1446z" />
    <glyph glyph-name="Ograve" unicode="&#xd2;" horiz-adv-x="1531" 
d="M1001 1552l-561 99v86l561 -131v-54zM750 -20q-194 0 -348.5 95.5t-241 265.5t-86.5 382q0 159 50 297t138 236t213 154t270 56q194 0 347.5 -95.5t239 -265t85.5 -382.5q0 -159 -49.5 -297t-136.5 -236t-211.5 -154t-269.5 -56zM745 299q263 0 433 120.5t170 305.5
t-170 305.5t-433 120.5t-432.5 -120.5t-169.5 -305.5t169.5 -305.5t432.5 -120.5z" />
    <glyph glyph-name="Oacute" unicode="&#xd3;" horiz-adv-x="1531" 
d="M459 1552v54l557 135v-90zM750 -20q-194 0 -348.5 95.5t-241 265.5t-86.5 382q0 159 50 297t138 236t213 154t270 56q194 0 347.5 -95.5t239 -265t85.5 -382.5q0 -159 -49.5 -297t-136.5 -236t-211.5 -154t-269.5 -56zM745 299q263 0 433 120.5t170 305.5t-170 305.5
t-433 120.5t-432.5 -120.5t-169.5 -305.5t169.5 -305.5t432.5 -120.5z" />
    <glyph glyph-name="Ocircumflex" unicode="&#xd4;" horiz-adv-x="1531" 
d="M995 1532l-172 303h-131l-180 -303h57l179 246h16l174 -246h57zM750 -20q-194 0 -348.5 95.5t-241 265.5t-86.5 382q0 159 50 297t138 236t213 154t270 56q194 0 347.5 -95.5t239 -265t85.5 -382.5q0 -159 -49.5 -297t-136.5 -236t-211.5 -154t-269.5 -56zM745 299
q263 0 433 120.5t170 305.5t-170 305.5t-433 120.5t-432.5 -120.5t-169.5 -305.5t169.5 -305.5t432.5 -120.5z" />
    <glyph glyph-name="Otilde" unicode="&#xd5;" horiz-adv-x="1531" 
d="M479 1610q0 96 42.5 146t113.5 50q49 0 111.5 -24.5t118.5 -49t89 -24.5q23 0 36.5 13t13.5 28h24q0 -96 -42.5 -146.5t-113.5 -50.5q-49 0 -111.5 25t-118.5 49.5t-89 24.5q-23 0 -36 -13t-13 -28h-25zM750 -20q-194 0 -348.5 95.5t-241 265.5t-86.5 382q0 159 50 297
t138 236t213 154t270 56q194 0 347.5 -95.5t239 -265t85.5 -382.5q0 -159 -49.5 -297t-136.5 -236t-211.5 -154t-269.5 -56zM745 299q263 0 433 120.5t170 305.5t-170 305.5t-433 120.5t-432.5 -120.5t-169.5 -305.5t169.5 -305.5t432.5 -120.5z" />
    <glyph glyph-name="Odieresis" unicode="&#xd6;" horiz-adv-x="1490" 
d="M598 1571q-41 0 -69.5 28.5t-28.5 71.5t28.5 72t69.5 29t69.5 -29t28.5 -72t-28.5 -71.5t-69.5 -28.5zM909 1571q-41 0 -69.5 28.5t-28.5 71.5t28.5 72t69.5 29t70 -29t29 -72t-29 -71.5t-70 -28.5zM750 -20q-194 0 -348.5 95.5t-241 265.5t-86.5 382q0 159 50 297
t138 236t213 154t270 56q194 0 347.5 -95.5t239 -265t85.5 -382.5q0 -159 -49.5 -297t-136.5 -236t-211.5 -154t-269.5 -56zM745 299q263 0 433 120.5t170 305.5t-170 305.5t-433 120.5t-432.5 -120.5t-169.5 -305.5t169.5 -305.5t432.5 -120.5z" />
    <glyph glyph-name="multiply" unicode="&#xd7;" horiz-adv-x="950" 
d="M82 238l61 -62l330 338l334 -338l61 62l-338 333l334 330l-61 62l-328 -334l-332 334l-61 -62l334 -330z" />
    <glyph glyph-name="Oslash" unicode="&#xd8;" horiz-adv-x="1490" 
d="M1430 1446l-181 -213q168 -208 168 -510q0 -159 -49.5 -297t-136.5 -236t-211.5 -154t-269.5 -56q-245 0 -428 153l-113 -133h-113l164 195q-89 100 -137.5 235t-48.5 293q0 159 50 297t138 236t213 154t270 56q262 0 447 -172l127 152h111zM143 725q0 -115 70 -208.5
t193 -149.5l624 739q-127 45 -285 45q-263 0 -432.5 -120.5t-169.5 -305.5zM1348 725q0 109 -62 198.5t-174 147.5l-620 -737q116 -35 253 -35q263 0 433 120.5t170 305.5z" />
    <glyph glyph-name="Ugrave" unicode="&#xd9;" horiz-adv-x="1310" 
d="M887 1606v-54l-561 99v86zM1143 1444h78v-862q0 -264 -156.5 -433t-402.5 -169q-162 0 -291 78.5t-201 218t-72 313.5v854h78v-813q0 -135 139 -233.5t344 -98.5q206 0 345 95t139 229v821z" />
    <glyph glyph-name="Uacute" unicode="&#xda;" horiz-adv-x="1310" 
d="M967 1741v-90l-557 -99v54zM1143 1444h78v-862q0 -264 -156.5 -433t-402.5 -169q-162 0 -291 78.5t-201 218t-72 313.5v854h78v-813q0 -135 139 -233.5t344 -98.5q206 0 345 95t139 229v821z" />
    <glyph glyph-name="Ucircumflex" unicode="&#xdb;" horiz-adv-x="1404" 
d="M657 1778l-178 -246h-57l180 303h131l172 -303h-57l-174 246h-17zM1143 1444h78v-862q0 -264 -156.5 -433t-402.5 -169q-162 0 -291 78.5t-201 218t-72 313.5v854h78v-813q0 -135 139 -233.5t344 -98.5q206 0 345 95t139 229v821z" />
    <glyph glyph-name="Udieresis" unicode="&#xdc;" horiz-adv-x="1314" 
d="M508 1571q-41 0 -69.5 28.5t-28.5 71.5t28.5 72t69.5 29t69.5 -29t28.5 -72t-28.5 -71.5t-69.5 -28.5zM819 1571q-41 0 -69.5 28.5t-28.5 71.5t28.5 72t69.5 29t70 -29t29 -72t-29 -71.5t-70 -28.5zM1143 1444h78v-862q0 -264 -156.5 -433t-402.5 -169q-162 0 -291 78.5
t-201 218t-72 313.5v854h78v-813q0 -135 139 -233.5t344 -98.5q206 0 345 95t139 229v821z" />
    <glyph glyph-name="Yacute" unicode="&#xdd;" horiz-adv-x="1183" 
d="M451 1552v54l557 135v-90zM4 1446l606 -1040v-406h78v406l508 1044h-86l-365 -733h-16l-405 729h-320z" />
    <glyph glyph-name="germandbls" unicode="&#xdf;" horiz-adv-x="1159" 
d="M799 713q143 -30 219 -119.5t76 -210.5q0 -178 -124 -290.5t-315 -112.5q-172 0 -282.5 123.5t-110.5 314.5h33q25 -55 113 -91t198 -36q154 0 255.5 53.5t101.5 136.5q0 79 -98 133t-238 54h-115v82h115q139 0 231 56t92 144q0 91 -102.5 152t-265.5 61t-270 -72
t-107 -182v-909h-74v958q0 223 128.5 365.5t326.5 142.5q208 0 345.5 -124.5t137.5 -309.5q0 -114 -78.5 -204t-191.5 -115z" />
    <glyph glyph-name="agrave" unicode="&#xe0;" horiz-adv-x="1007" 
d="M764 1221v-54l-561 99v86zM502 1010q166 0 272.5 -117t106.5 -301v-592h-82l16 221h-16q-37 -99 -144 -168t-229 -69q-161 0 -265 89.5t-104 229.5q0 109 96.5 177.5t239.5 68.5h406v29q-6 80 -91.5 133t-213.5 53q-110 0 -199.5 -44t-120.5 -112h-37q0 174 102 288
t263 114zM799 426v49h-414q-92 0 -148.5 -30.5t-56.5 -79.5q0 -53 69.5 -86t160.5 -33q102 0 185 19t139.5 60.5t64.5 100.5z" />
    <glyph glyph-name="aacute" unicode="&#xe1;" horiz-adv-x="1007" 
d="M819 1356v-90l-557 -99v54zM502 1010q166 0 272.5 -117t106.5 -301v-592h-82l16 221h-16q-37 -99 -144 -168t-229 -69q-161 0 -265 89.5t-104 229.5q0 109 96.5 177.5t239.5 68.5h406v29q-6 80 -91.5 133t-213.5 53q-110 0 -199.5 -44t-120.5 -112h-37q0 174 102 288
t263 114zM799 426v49h-414q-92 0 -148.5 -30.5t-56.5 -79.5q0 -53 69.5 -86t160.5 -33q102 0 185 19t139.5 60.5t64.5 100.5z" />
    <glyph glyph-name="acircumflex" unicode="&#xe2;" horiz-adv-x="1007" 
d="M518 1376l-178 -246h-57l180 304h131l172 -304h-57l-174 246h-17zM502 1010q166 0 272.5 -117t106.5 -301v-592h-82l16 221h-16q-37 -99 -144 -168t-229 -69q-161 0 -265 89.5t-104 229.5q0 109 96.5 177.5t239.5 68.5h406v29q-6 80 -91.5 133t-213.5 53
q-110 0 -199.5 -44t-120.5 -112h-37q0 174 102 288t263 114zM799 426v49h-414q-92 0 -148.5 -30.5t-56.5 -79.5q0 -53 69.5 -86t160.5 -33q102 0 185 19t139.5 60.5t64.5 100.5z" />
    <glyph glyph-name="atilde" unicode="&#xe3;" horiz-adv-x="1007" 
d="M332 1249q-23 0 -36 -13t-13 -28h-25q0 96 42.5 146.5t113.5 50.5q49 0 111.5 -24.5t118.5 -49t89 -24.5q23 0 36 13t13 28h25q0 -96 -42.5 -146.5t-113.5 -50.5q-49 0 -111.5 24.5t-118.5 49t-89 24.5zM502 1010q166 0 272.5 -117t106.5 -301v-592h-82l16 221h-16
q-37 -99 -144 -168t-229 -69q-161 0 -265 89.5t-104 229.5q0 109 96.5 177.5t239.5 68.5h406v29q-6 80 -91.5 133t-213.5 53q-110 0 -199.5 -44t-120.5 -112h-37q0 174 102 288t263 114zM799 426v49h-414q-92 0 -148.5 -30.5t-56.5 -79.5q0 -53 69.5 -86t160.5 -33
q102 0 185 19t139.5 60.5t64.5 100.5z" />
    <glyph glyph-name="adieresis" unicode="&#xe4;" horiz-adv-x="985" 
d="M369 1169q-41 0 -70 29t-29 72q0 42 29 71t70 29t69.5 -28.5t28.5 -71.5t-28.5 -72t-69.5 -29zM680 1169q-41 0 -69.5 29t-28.5 72t28.5 71.5t69.5 28.5t69.5 -28.5t28.5 -71.5t-28.5 -72t-69.5 -29zM502 1010q166 0 272.5 -117t106.5 -301v-592h-82l16 221h-16
q-37 -99 -144 -168t-229 -69q-161 0 -265 89.5t-104 229.5q0 109 96.5 177.5t239.5 68.5h406v29q-6 80 -91.5 133t-213.5 53q-110 0 -199.5 -44t-120.5 -112h-37q0 174 102 288t263 114zM799 426v49h-414q-92 0 -148.5 -30.5t-56.5 -79.5q0 -53 69.5 -86t160.5 -33
q102 0 185 19t139.5 60.5t64.5 100.5z" />
    <glyph glyph-name="aring" unicode="&#xe5;" horiz-adv-x="1007" 
d="M524 1122q-72 0 -120 49t-48 123t48 123t120 49t120 -49t48 -123t-48 -123t-120 -49zM524 1421q-49 0 -81.5 -36.5t-32.5 -90.5q0 -53 32.5 -88t81.5 -35t82 35t33 88q0 54 -33 90.5t-82 36.5zM502 1010q166 0 272.5 -117t106.5 -301v-592h-82l16 221h-16
q-37 -99 -144 -168t-229 -69q-161 0 -265 89.5t-104 229.5q0 109 96.5 177.5t239.5 68.5h406v29q-6 80 -91.5 133t-213.5 53q-110 0 -199.5 -44t-120.5 -112h-37q0 174 102 288t263 114zM799 426v49h-414q-92 0 -148.5 -30.5t-56.5 -79.5q0 -53 69.5 -86t160.5 -33
q102 0 185 19t139.5 60.5t64.5 100.5z" />
    <glyph glyph-name="ae" unicode="&#xe6;" horiz-adv-x="1695" 
d="M1577 418h37q-6 -190 -117.5 -312t-277.5 -122q-138 0 -244.5 76t-159.5 208q-39 -130 -143 -207t-246 -77q-161 0 -265 89.5t-104 229.5q0 104 94 169t242 65h381v24q-6 89 -87.5 146t-201.5 57q-104 0 -192 -44t-119 -112h-37q0 177 101 289.5t256 112.5q119 0 205 -72
t120 -195q52 124 150.5 195.5t224.5 71.5q171 0 281 -132.5t110 -338.5q0 -64 -2 -70l-741 -4q15 -99 114.5 -161t245.5 -62q126 0 232 50t143 126zM1194 756q-139 0 -236 -61.5t-114 -159.5l676 4q-19 96 -109.5 156.5t-216.5 60.5zM401 246q152 0 258 50.5t115 129.5v41
h-389q-92 0 -148.5 -27t-56.5 -75q0 -53 61.5 -86t159.5 -33z" />
    <glyph glyph-name="ccedilla" unicode="&#xe7;" horiz-adv-x="1067" 
d="M551 -16q-27 0 -41 2l-51 -125q48 20 94 20q97 0 155 -42.5t58 -110.5q0 -74 -61.5 -122t-159.5 -48q-49 0 -96 13t-72 32v69q31 -22 76 -35.5t88 -13.5q74 0 119 27.5t45 73.5t-42.5 73t-113.5 27q-86 0 -135 -49l-41 16l76 203q-166 36 -268.5 173.5t-102.5 330.5
q0 224 126 368t322 144q184 0 302 -126t118 -317h-37q-37 74 -140.5 119t-238.5 45q-167 0 -277 -66t-110 -169q0 -98 113 -162t283 -64q140 0 253 44t150 112h37q-6 -191 -126.5 -316.5t-301.5 -125.5z" />
    <glyph glyph-name="egrave" unicode="&#xe8;" horiz-adv-x="1048" 
d="M748 1221v-54l-562 99v86zM930 418h37q-6 -190 -125 -312t-295 -122q-205 0 -337 146t-132 368q0 223 124.5 367.5t319.5 144.5q184 0 300 -132.5t116 -342.5q0 -56 -2 -66l-789 -12q21 -95 125 -155t258 -60q136 0 249.5 50.5t150.5 125.5zM522 756q-156 0 -260.5 -65.5
t-116.5 -168.5l727 13q-19 98 -117 159.5t-233 61.5z" />
    <glyph glyph-name="eacute" unicode="&#xe9;" horiz-adv-x="1048" 
d="M819 1356v-90l-557 -99v54zM930 418h37q-6 -190 -125 -312t-295 -122q-205 0 -337 146t-132 368q0 223 124.5 367.5t319.5 144.5q184 0 300 -132.5t116 -342.5q0 -56 -2 -66l-789 -12q21 -95 125 -155t258 -60q136 0 249.5 50.5t150.5 125.5zM522 756
q-156 0 -260.5 -65.5t-116.5 -168.5l727 13q-19 98 -117 159.5t-233 61.5z" />
    <glyph glyph-name="ecircumflex" unicode="&#xea;" horiz-adv-x="1048" 
d="M518 1376l-178 -246h-57l180 304h131l172 -304h-57l-174 246h-17zM930 418h37q-6 -190 -125 -312t-295 -122q-205 0 -337 146t-132 368q0 223 124.5 367.5t319.5 144.5q184 0 300 -132.5t116 -342.5q0 -56 -2 -66l-789 -12q21 -95 125 -155t258 -60q136 0 249.5 50.5
t150.5 125.5zM522 756q-156 0 -260.5 -65.5t-116.5 -168.5l727 13q-19 98 -117 159.5t-233 61.5z" />
    <glyph glyph-name="edieresis" unicode="&#xeb;" horiz-adv-x="1048" 
d="M360 1169q-41 0 -69.5 29t-28.5 72t28.5 71.5t69.5 28.5q42 0 70.5 -29t28.5 -71q0 -43 -29 -72t-70 -29zM672 1169q-41 0 -70 29t-29 72q0 42 28.5 71t70.5 29q41 0 69.5 -28.5t28.5 -71.5t-28.5 -72t-69.5 -29zM930 418h37q-6 -190 -125 -312t-295 -122
q-205 0 -337 146t-132 368q0 223 124.5 367.5t319.5 144.5q184 0 300 -132.5t116 -342.5q0 -56 -2 -66l-789 -12q21 -95 125 -155t258 -60q136 0 249.5 50.5t150.5 125.5zM522 756q-156 0 -260.5 -65.5t-116.5 -168.5l727 13q-19 98 -117 159.5t-233 61.5z" />
    <glyph glyph-name="igrave" unicode="&#xec;" 
d="M209 1108h-53l-119 430h78zM131 993v-993h82v993h-82z" />
    <glyph glyph-name="iacute" unicode="&#xed;" 
d="M135 1108l86 430h86l-119 -430h-53zM131 993v-993h82v993h-82z" />
    <glyph glyph-name="icircumflex" unicode="&#xee;" horiz-adv-x="307" 
d="M365 1130l-127 304h-127l-131 -304h57l127 246h16l127 -246h58zM131 993v-993h82v993h-82z" />
    <glyph glyph-name="idieresis" unicode="&#xef;" 
d="M272 1370q43 0 71 -28.5t28 -71.5t-28 -71t-69 -28q-31 0 -57 19t-35 49h-16q-9 -30 -36 -50t-58 -20q-41 0 -70 29t-29 72t28 71.5t71 28.5q33 0 58 -20t34 -52h16q9 32 34 52t58 20zM131 0v993h82v-993h-82z" />
    <glyph glyph-name="ntilde" unicode="&#xf1;" horiz-adv-x="1071" 
d="M340 1249q-23 0 -36 -13t-13 -28h-25q0 96 42.5 146.5t113.5 50.5q49 0 111.5 -24.5t118.5 -49t89 -24.5q23 0 36.5 13t13.5 28h24q0 -96 -42.5 -146.5t-113.5 -50.5q-49 0 -111.5 24.5t-118.5 49t-89 24.5zM971 498l2 -498h-82l-2 481q0 100 -95 167t-239 67
q-142 0 -243 -65.5t-107 -160.5v-489h-82v993h82l-17 -245h17q36 120 141 191t234 71q166 0 278.5 -146.5t112.5 -365.5z" />
    <glyph glyph-name="ograve" unicode="&#xf2;" horiz-adv-x="1126" 
d="M797 1167l-561 99v86l561 -131v-54zM565 -16q-211 0 -349 143t-138 369t137.5 370t347.5 144q211 0 348.5 -144t137.5 -370t-136.5 -369t-347.5 -143zM563 270q183 0 301.5 63t118.5 163q0 103 -118.5 167t-301.5 64t-301.5 -64t-118.5 -167q0 -100 118.5 -163t301.5 -63
z" />
    <glyph glyph-name="oacute" unicode="&#xf3;" horiz-adv-x="1126" 
d="M303 1167v54l557 135v-90zM565 -16q-211 0 -349 143t-138 369t137.5 370t347.5 144q211 0 348.5 -144t137.5 -370t-136.5 -369t-347.5 -143zM563 270q183 0 301.5 63t118.5 163q0 103 -118.5 167t-301.5 64t-301.5 -64t-118.5 -167q0 -100 118.5 -163t301.5 -63z" />
    <glyph glyph-name="ocircumflex" unicode="&#xf4;" horiz-adv-x="1126" 
d="M807 1130l-172 304h-131l-180 -304h57l178 246h16l175 -246h57zM565 -16q-211 0 -349 143t-138 369t137.5 370t347.5 144q211 0 348.5 -144t137.5 -370t-136.5 -369t-347.5 -143zM563 270q183 0 301.5 63t118.5 163q0 103 -118.5 167t-301.5 64t-301.5 -64t-118.5 -167
q0 -100 118.5 -163t301.5 -63z" />
    <glyph glyph-name="otilde" unicode="&#xf5;" horiz-adv-x="1126" 
d="M291 1208q0 96 42 146.5t113 50.5q49 0 111.5 -24.5t119 -49t89.5 -24.5q23 0 36 13t13 28h25q0 -96 -42.5 -146.5t-113.5 -50.5q-49 0 -111.5 24.5t-118.5 49t-89 24.5q-23 0 -36.5 -13t-13.5 -28h-24zM565 -16q-211 0 -349 143t-138 369t137.5 370t347.5 144
q211 0 348.5 -144t137.5 -370t-136.5 -369t-347.5 -143zM563 270q183 0 301.5 63t118.5 163q0 103 -118.5 167t-301.5 64t-301.5 -64t-118.5 -167q0 -100 118.5 -163t301.5 -63z" />
    <glyph glyph-name="odieresis" unicode="&#xf6;" horiz-adv-x="1126" 
d="M410 1169q-41 0 -70 29t-29 72q0 42 28.5 71t70.5 29q41 0 69.5 -28.5t28.5 -71.5t-28.5 -72t-69.5 -29zM721 1169q-41 0 -69.5 29t-28.5 72t28.5 71.5t69.5 28.5t69.5 -28.5t28.5 -71.5t-28.5 -72t-69.5 -29zM565 -16q-211 0 -349 143t-138 369t137.5 370t347.5 144
q211 0 348.5 -144t137.5 -370t-136.5 -369t-347.5 -143zM563 270q183 0 301.5 63t118.5 163q0 103 -118.5 167t-301.5 64t-301.5 -64t-118.5 -167q0 -100 118.5 -163t301.5 -63z" />
    <glyph glyph-name="oslash" unicode="&#xf8;" horiz-adv-x="1126" 
d="M926 850q123 -142 123 -354q0 -226 -136.5 -369t-347.5 -143q-166 0 -291 92l-65 -76h-113l113 133q-131 144 -131 363q0 226 137.5 370t347.5 144q170 0 301 -101l72 84h111zM143 496q0 -66 54.5 -117.5t150.5 -79.5l354 418q-72 10 -139 10q-183 0 -301.5 -64
t-118.5 -167zM563 270q183 0 301.5 63t118.5 163q0 66 -50 117t-138 81l-351 -415q56 -9 119 -9z" />
    <glyph glyph-name="ugrave" unicode="&#xf9;" horiz-adv-x="1030" 
d="M731 1221v-54l-561 99v86zM850 993h82v-993h-82l16 246h-16q-31 -117 -125 -189.5t-217 -72.5q-176 0 -292 141.5t-116 361.5l-2 506h82l2 -497q0 -97 95.5 -161.5t238.5 -64.5q137 0 234 60t100 149v514z" />
    <glyph glyph-name="uacute" unicode="&#xfa;" horiz-adv-x="1030" 
d="M827 1356v-90l-557 -99v54zM850 993h82v-993h-82l16 246h-16q-31 -117 -125 -189.5t-217 -72.5q-176 0 -292 141.5t-116 361.5l-2 506h82l2 -497q0 -97 95.5 -161.5t238.5 -64.5q137 0 234 60t100 149v514z" />
    <glyph glyph-name="ucircumflex" unicode="&#xfb;" horiz-adv-x="1030" 
d="M510 1376l-178 -246h-58l181 304h131l172 -304h-58l-174 246h-16zM850 993h82v-993h-82l16 246h-16q-31 -117 -125 -189.5t-217 -72.5q-176 0 -292 141.5t-116 361.5l-2 506h82l2 -497q0 -97 95.5 -161.5t238.5 -64.5q137 0 234 60t100 149v514z" />
    <glyph glyph-name="udieresis" unicode="&#xfc;" horiz-adv-x="1054" 
d="M360 1169q-41 0 -69.5 29t-28.5 72t28.5 71.5t69.5 28.5q42 0 70.5 -29t28.5 -71q0 -43 -29 -72t-70 -29zM672 1169q-41 0 -70 29t-29 72q0 42 28.5 71t70.5 29q41 0 69.5 -28.5t28.5 -71.5t-28.5 -72t-69.5 -29zM850 993h82v-993h-82l16 246h-16q-31 -117 -125 -189.5
t-217 -72.5q-176 0 -292 141.5t-116 361.5l-2 506h82l2 -497q0 -97 95.5 -161.5t238.5 -64.5q137 0 234 60t100 149v514z" />
    <glyph glyph-name="yacute" unicode="&#xfd;" horiz-adv-x="901" 
d="M287 1167v54l557 135v-90zM4 993l418 -977h16l-164 -438h86l537 1415h-86l-250 -680h-16l-275 680h-266z" />
    <glyph glyph-name="ydieresis" unicode="&#xff;" horiz-adv-x="901" 
d="M369 1169q-41 0 -70 29t-29 72q0 42 29 71t70 29t69.5 -28.5t28.5 -71.5t-28.5 -72t-69.5 -29zM680 1169q-41 0 -69.5 29t-28.5 72t28.5 71.5t69.5 28.5t69.5 -28.5t28.5 -71.5t-28.5 -72t-69.5 -29zM4 993l418 -977h16l-164 -438h86l537 1415h-86l-250 -680h-16
l-275 680h-266z" />
    <glyph glyph-name="dotlessi" unicode="&#x131;" 
d="M131 993v-993h82v993h-82z" />
    <glyph glyph-name="OE" unicode="&#x152;" horiz-adv-x="1650" 
d="M823 303h746v-303h-864q-190 0 -333.5 91t-220.5 254.5t-77 377.5t77 377.5t220.5 254.5t333.5 91h847v-299h-729v-428h590v-80h-590v-336zM705 303h40v844h-40q-252 0 -407 -116t-155 -306t155 -306t407 -116z" />
    <glyph glyph-name="oe" unicode="&#x153;" horiz-adv-x="1822" 
d="M1704 416h37q-6 -190 -117.5 -312t-277.5 -122q-144 0 -253 82.5t-159 224.5q-48 -140 -157 -222.5t-253 -82.5q-197 0 -321.5 143.5t-124.5 368.5t124 369.5t320 144.5q146 0 254 -81.5t158 -223.5q45 140 147.5 221.5t239.5 81.5q171 0 281 -132.5t110 -338.5
q0 -64 -2 -70l-741 -4q15 -99 114.5 -161t245.5 -62q126 0 232 50t143 126zM1321 754q-139 0 -236 -61.5t-114 -160.5l676 5q-19 96 -109.5 156.5t-216.5 60.5zM522 270q166 0 272.5 64t106.5 162q0 101 -106.5 166t-272.5 65t-272.5 -65t-106.5 -166q0 -98 106.5 -162
t272.5 -64z" />
    <glyph glyph-name="Ydieresis" unicode="&#x178;" horiz-adv-x="1196" 
d="M524 1571q-41 0 -69.5 28.5t-28.5 71.5t28.5 72t69.5 29t70 -29t29 -72t-28.5 -71.5t-70.5 -28.5zM836 1571q-42 0 -70.5 28.5t-28.5 71.5t29 72t70 29t69.5 -29t28.5 -72t-28.5 -71.5t-69.5 -28.5zM4 1446l606 -1040v-406h78v406l508 1044h-86l-365 -733h-16l-405 729
h-320z" />
    <glyph glyph-name="circumflex" unicode="&#x2c6;" horiz-adv-x="1228" 
d="M856 1130l-172 304h-131l-180 -304h57l178 246h17l174 -246h57z" />
    <glyph glyph-name="ring" unicode="&#x2da;" horiz-adv-x="1228" 
d="M614 1122q-72 0 -120 49t-48 123t48 123t120 49t120 -49t48 -123t-48 -123t-120 -49zM614 1171q49 0 82 35t33 88q0 54 -33 90.5t-82 36.5t-81.5 -36.5t-32.5 -90.5q0 -53 32.5 -88t81.5 -35z" />
    <glyph glyph-name="tilde" unicode="&#x2dc;" horiz-adv-x="1228" 
d="M340 1208q0 96 42.5 146.5t113.5 50.5q49 0 111.5 -24.5t118.5 -49t89 -24.5q23 0 36 13t13 28h25q0 -96 -42.5 -146.5t-113.5 -50.5q-49 0 -111.5 24.5t-118.5 49t-89 24.5q-23 0 -36 -13t-13 -28h-25z" />
    <glyph glyph-name="uni0308" unicode="&#x308;" horiz-adv-x="0" 
d="M-770 1169q-41 0 -69.5 29t-28.5 72t28.5 71.5t69.5 28.5t69.5 -28.5t28.5 -71.5t-28.5 -72t-69.5 -29zM-459 1169q-41 0 -69.5 29t-28.5 72t28.5 71.5t69.5 28.5t70 -29t29 -71q0 -43 -29 -72t-70 -29z" />
    <glyph glyph-name="endash" unicode="&#x2013;" horiz-adv-x="1212" 
d="M131 614v-82h950v82h-950z" />
    <glyph glyph-name="emdash" unicode="&#x2014;" horiz-adv-x="1933" 
d="M131 614v-82h1671v82h-1671z" />
    <glyph glyph-name="quoteleft" unicode="&#x2018;" horiz-adv-x="331" 
d="M266 889h-57l-111 557h86z" />
    <glyph glyph-name="quoteright" unicode="&#x2019;" horiz-adv-x="331" 
d="M66 889l81 557h86l-110 -557h-57z" />
    <glyph glyph-name="quotesinglbase" unicode="&#x201a;" horiz-adv-x="331" 
d="M66 -373l81 557h86l-110 -557h-57z" />
    <glyph glyph-name="quotedblleft" unicode="&#x201c;" horiz-adv-x="499" 
d="M266 889h-57l-111 557h86zM434 889h-57l-111 557h86z" />
    <glyph glyph-name="quotedblright" unicode="&#x201d;" horiz-adv-x="499" 
d="M66 889l81 557h86l-110 -557h-57zM233 889l82 557h86l-110 -557h-58z" />
    <glyph glyph-name="quotedblbase" unicode="&#x201e;" horiz-adv-x="499" 
d="M66 -373l81 557h86l-110 -557h-57zM233 -373l82 557h86l-110 -557h-58z" />
    <glyph glyph-name="bullet" unicode="&#x2022;" horiz-adv-x="610" 
d="M305 362q-75 0 -124.5 51t-49.5 128t49.5 127.5t124.5 50.5t124.5 -50.5t49.5 -127.5t-49.5 -128t-124.5 -51z" />
    <glyph glyph-name="ellipsis" unicode="&#x2026;" horiz-adv-x="933" 
d="M172 -4q-41 0 -69.5 28.5t-28.5 71.5t28.5 72t69.5 29t69.5 -29t28.5 -72t-28.5 -71.5t-69.5 -28.5zM467 -4q-41 0 -69.5 28.5t-28.5 71.5t28.5 72t69.5 29t69.5 -29t28.5 -72t-28.5 -71.5t-69.5 -28.5zM762 -4q-41 0 -69.5 28.5t-28.5 71.5t28.5 72t69.5 29t69.5 -29
t28.5 -72t-28.5 -71.5t-69.5 -28.5z" />
    <glyph glyph-name="guilsinglleft" unicode="&#x2039;" horiz-adv-x="516" 
d="M418 250l-336 242v90l336 233v-90l-262 -182v-17l262 -186v-90z" />
    <glyph glyph-name="guilsinglright" unicode="&#x203a;" horiz-adv-x="516" 
d="M98 250v90l262 186v17l-262 182v90l336 -233v-90z" />
    <glyph glyph-name="Euro" unicode="&#x20ac;" horiz-adv-x="1515" 
d="M1417 610h33q-4 -178 -83 -322t-216.5 -226t-306.5 -82q-263 0 -449.5 163t-234.5 428h-90v78h82q-5 63 -5 78v16h-81v78h86q28 286 207 465.5t440 179.5q174 0 312.5 -81.5t216 -226.5t77.5 -327h-33q-59 136 -221.5 228t-347.5 92q-211 0 -366.5 -92.5t-200.5 -237.5
h882v-78h-899v-24q0 -39 8 -70h895v-78h-866q63 -122 214.5 -197t348.5 -75q196 0 366 89.5t232 221.5z" />
    <glyph glyph-name="minus" unicode="&#x2212;" horiz-adv-x="1146" 
d="M98 610v-84h951v84h-951z" />
    <glyph glyph-name="l_l_l" horiz-adv-x="933" 
d="M614 1561q86 0 137.5 -61.5t51.5 -160.5v-1339h-82v1331q0 32 -30 57t-77 25t-76.5 -24.5t-29.5 -57.5v-1134q0 -99 -51.5 -160.5t-137.5 -61.5t-137 61.5t-51 160.5v1339h82v-1331q0 -32 29 -55t77 -23t77.5 23t29.5 55v1134q0 99 51 160.5t137 61.5z" />
    <glyph glyph-name="t_t" horiz-adv-x="1327" 
d="M1106 238q111 0 156 20l-5 -250q-50 -24 -159 -24q-123 0 -205 100.5t-82 251.5v354h-553v-330q0 -52 61 -87t152 -35q111 0 156 20l-4 -250q-50 -24 -160 -24q-123 0 -205 100.5t-82 251.5v354h-110v303h110v369h82v-369h553v369h82v-369h360v-303h-360v-330
q0 -52 61 -87t152 -35z" />
    <glyph glyph-name="t_t_t" horiz-adv-x="2023" 
d="M1815 238q94 0 159 30l-4 -248q-39 -24 -147 -24h-1377q-123 0 -204.5 97t-81.5 243v358h-111v299h111v543h82v-543h594v545h82v-545h593v545h82v-545h377v-299h-377v-334q0 -52 49 -87t123 -35h50zM455 238h233q63 0 105.5 28.5t42.5 69.5v358h-594v-334q0 -52 61 -87
t152 -35zM1106 238h258q63 0 105 28.5t42 69.5v358h-593v-334q0 -53 53 -87.5t135 -34.5z" />
    <glyph glyph-name="four.alt" horiz-adv-x="1097" 
d="M1024 590v-303h-139v-287h-82v287h-737v49l634 1110h308v-299h-379l-316 -557h490v403h82v-403h139z" />
    </font>
</defs>
</svg>
